<?xml version="1.0" encoding="utf-8"?>
<!-- Generator: Adobe Illustrator 24.1.2, SVG Export Plug-In . SVG Version: 6.00 Build 0)  -->
<svg version="1.1" id="Layer_1" xmlns="http://www.w3.org/2000/svg" xmlns:xlink="http://www.w3.org/1999/xlink" x="0px" y="0px"
	 viewBox="0 0 24 24" style="enable-background:new 0 0 24 24;" xml:space="preserve">
<style type="text/css">
	.st0{fill:#FFFFFF;}
</style>
<path class="st0" d="M23.7,0.3h-2H9.1H7l0,0l0,0L6.2,1.1L3.7,3.5L0.5,6.8l0,0v2v12.6v2l0,0l0,0h2h12.6h2l0,0l0.8-0.8l4.9-4.9
	l0.8-0.8l0,0l0,0v-2V2.4L23.7,0.3L23.7,0.3z M23.6,2.3h-1.9V0.4h1.9V2.3z M23.6,14.9h-1.9V2.4h1.9V14.9z M23.6,16.9h-1.9V15h1.9
	V16.9z M15.9,22.6H3.5l4.8-4.8h12.4L15.9,22.6z M0.6,21.5l0.7-0.7v1.8l-0.7,0.7V21.5z M0.6,8.9l0.7-0.7v12.4l-0.7,0.7V8.9z M7,0.5
	v1.8L6.3,3V1.1L7,0.5z M8.2,17.7H6.4L7,17h1.8L8.2,17.7z M9,16.9H7.1V15H9V16.9z M6.3,15.8L7,15.1V17l-0.7,0.7V15.8z M7,14.9
	l-0.7,0.7V3.2L7,2.5V14.9z M6.2,15.7l-4.8,4.8V8.1l4.8-4.8V15.7z M1.4,20.7l4.8-4.8v1.8l-4.8,4.8V20.7z M9.1,15h12.5v1.9H9.1V15z
	 M21.6,14.9H9.1V2.4h12.5V14.9z M9,14.9H7.1V2.4H9V14.9z M6.2,1.3v1.8L1.4,7.9V6.1l2.4-2.4L6.2,1.3z M1.2,6.2V8L0.6,8.7V6.8L1.2,6.2
	z M6.3,17.8h1.8l-4.8,4.8H1.5L6.3,17.8z M20.8,17.7H8.4L9.1,17h12.4L20.8,17.7z M21.6,2.3H9.1V0.4h12.5V2.3z M9,2.3H7.1V0.4H9V2.3z
	 M1.3,22.8h1.8l-0.7,0.7H0.7L1.3,22.8z M3.4,22.8h12.4l-0.7,0.7H2.7L3.4,22.8z M17.2,23.4h-1.8l0.7-0.7h1.8L17.2,23.4z M17.9,22.6
	h-1.8l4.8-4.8h1.8L17.9,22.6z M22.9,17.7H21l0.7-0.7h1.8L22.9,17.7z"/>
</svg>
