<?xml version="1.0" encoding="utf-8"?>
<!-- Generator: Adobe Illustrator 24.1.2, SVG Export Plug-In . SVG Version: 6.00 Build 0)  -->
<svg version="1.1" id="Layer_1" xmlns="http://www.w3.org/2000/svg" xmlns:xlink="http://www.w3.org/1999/xlink" x="0px" y="0px"
	 viewBox="0 0 24 24" style="enable-background:new 0 0 24 24;" xml:space="preserve">
<style type="text/css">
	.st0{fill:#E5A8A0;}
	.st1{fill:#878688;}
	.st2{fill:#E3E3EC;}
	.st3{fill:#D62927;}
	.st4{fill:#92B5B5;}
	.st5{fill:#468CB8;}
	.st6{fill:#522124;}
</style>
<g>
	<g>
		<rect x="7.1" y="0.8" class="st0" width="16.1" height="16.1"/>
		<rect x="7.1" y="0.8" class="st0" width="16.1" height="16.1"/>
		<rect x="7.1" y="0.8" class="st1" width="2" height="2"/>
		<rect x="7.1" y="14.9" class="st1" width="2" height="2"/>
		<rect x="9.1" y="0.8" class="st2" width="12.2" height="2"/>
		<rect x="9.1" y="14.9" class="st2" width="12.2" height="2"/>
		<rect x="7.1" y="2.8" class="st3" width="2" height="12.2"/>
		<rect x="21.2" y="2.8" class="st3" width="2" height="12.2"/>
		<rect x="21.2" y="0.8" class="st1" width="2" height="2"/>
		<rect x="21.2" y="14.9" class="st1" width="2" height="2"/>
	</g>
	<g>
		<polygon class="st0" points="16.9,23.2 0.8,23.2 7.1,16.9 23.2,16.9 		"/>
		<polygon class="st4" points="16.9,23.2 0.8,23.2 7.1,16.9 23.2,16.9 		"/>
		<polygon class="st1" points="8.3,17.7 6.3,17.7 7.1,16.9 9.1,16.9 		"/>
		<polygon class="st1" points="2.8,23.2 0.8,23.2 1.6,22.4 3.6,22.4 		"/>
		<polygon class="st2" points="20.4,17.7 8.3,17.7 9.1,16.9 21.2,16.9 		"/>
		<polygon class="st2" points="14.9,23.2 2.8,23.2 3.6,22.4 15.7,22.4 		"/>
		<polygon class="st5" points="3.6,22.4 1.6,22.4 6.3,17.7 8.3,17.7 		"/>
		<polygon class="st5" points="17.7,22.4 15.7,22.4 20.4,17.7 22.4,17.7 		"/>
		<polygon class="st1" points="22.4,17.7 20.4,17.7 21.2,16.9 23.2,16.9 		"/>
		<polygon class="st1" points="16.9,23.2 14.9,23.2 15.7,22.4 17.7,22.4 		"/>
	</g>
	<g>
		<polygon class="st0" points="7.1,16.9 7.1,0.8 0.8,7.1 0.8,23.2 		"/>
		<polygon class="st6" points="7.1,16.9 7.1,0.8 0.8,7.1 0.8,23.2 		"/>
		<polygon class="st1" points="1.6,8.3 1.6,6.3 0.8,7.1 0.8,9.1 		"/>
		<polygon class="st1" points="7.1,2.8 7.1,0.8 6.3,1.6 6.3,3.6 		"/>
		<polygon class="st3" points="1.6,20.4 1.6,8.3 0.8,9.1 0.8,21.2 		"/>
		<polygon class="st3" points="7.1,14.9 7.1,2.8 6.3,3.6 6.3,15.7 		"/>
		<polygon class="st5" points="6.3,3.6 6.3,1.6 1.6,6.3 1.6,8.3 		"/>
		<polygon class="st5" points="6.3,17.7 6.3,15.7 1.6,20.4 1.6,22.4 		"/>
		<polygon class="st1" points="1.6,22.4 1.6,20.4 0.8,21.2 0.8,23.2 		"/>
		<polygon class="st1" points="7.1,16.9 7.1,14.9 6.3,15.7 6.3,17.7 		"/>
	</g>
</g>
</svg>
