<?xml version="1.0" encoding="utf-8"?>
<!-- Generator: Adobe Illustrator 24.1.2, SVG Export Plug-In . SVG Version: 6.00 Build 0)  -->
<svg version="1.1" id="Layer_1" xmlns="http://www.w3.org/2000/svg" xmlns:xlink="http://www.w3.org/1999/xlink" x="0px" y="0px"
	 viewBox="0 0 1024 1024" style="enable-background:new 0 0 1024 1024;" xml:space="preserve">
<style type="text/css">
	.st0{fill-rule:evenodd;clip-rule:evenodd;fill:#FFFFFF;}
</style>
<path class="st0" d="M512.2,39.1c-265.4,0-480.7,215.2-480.7,480.8c0,212.4,137.7,392.6,328.8,456.1c24,4.4,32.8-10.4,32.8-23.2
	c0-11.4-0.4-41.6-0.6-81.8c-133.7,29.1-161.9-64.4-161.9-64.4c-21.9-55.5-53.4-70.3-53.4-70.3c-43.6-29.8,3.3-29.2,3.3-29.2
	c48.2,3.4,73.6,49.5,73.6,49.5c42.9,73.5,112.5,52.3,139.9,39.9c4.4-31.1,16.8-52.3,30.5-64.3c-106.7-12.1-219-53.4-219-237.6
	c0-52.5,18.7-95.4,49.5-129c-4.9-12.2-21.4-61,4.7-127.2c0,0,40.4-12.9,132.2,49.3c38.3-10.7,79.5-16,120.4-16.2
	c40.8,0.2,82,5.5,120.4,16.2c91.8-62.2,132.1-49.3,132.1-49.3c26.2,66.2,9.7,115.1,4.8,127.2c30.8,33.6,49.4,76.5,49.4,129
	c0,184.7-112.4,225.3-219.5,237.2c17.3,14.8,32.6,44.2,32.6,89c0,64.3-0.6,116.1-0.6,131.9c0,12.9,8.7,27.8,33.1,23.1
	C855.4,912.2,993,732.2,993,519.8C993,254.3,777.7,39.1,512.2,39.1z"/>
</svg>
