<svg version="1.1" id="Layer_1" xmlns="http://www.w3.org/2000/svg" xmlns:xlink="http://www.w3.org/1999/xlink" x="0px" y="0px"
	 viewBox="0 0 36 36" style="enable-background:new 0 0 36 36;" xml:space="preserve">
<style type="text/css">
	.st0{fill:#FFFFFF;}
	.st1{fill:#F9933A;}
</style>
<g>
	<g>
		<rect x="17" y="0.32" class="st0" width="2" height="3.67"/>
		<path class="st0" d="M9.56,25.11L6.1,34.23c-0.2,0.52,0.06,1.09,0.58,1.29c0.12,0.04,0.24,0.06,0.35,0.06
			c0.4,0,0.78-0.25,0.94-0.65l3.72-9.83H9.56z"/>
		<path class="st0" d="M17,25.11v6.68c0,0.55,0.45,1,1,1s1-0.45,1-1v-6.68H17z"/>
		<path class="st0" d="M26.44,25.11H24.3l3.72,9.83c0.15,0.4,0.53,0.65,0.94,0.65c0.12,0,0.24-0.02,0.35-0.06
			c0.52-0.2,0.78-0.77,0.58-1.29L26.44,25.11z"/>
	</g>
	<g>
		<path class="st0" d="M35.47,25.11H0.53V3.99h34.94V25.11z M2.53,23.11h30.94V5.99H2.53V23.11z"/>
	</g>
</g>
<path class="st1" d="M21.67,14.1l-5.13-2.96c-0.34-0.2-0.77,0.05-0.77,0.44v5.92c0,0.4,0.43,0.64,0.77,0.44l5.13-2.96
	C22.02,14.8,22.02,14.3,21.67,14.1z"/>
</svg>
