<svg class="fill-current w-full h-full" xmlns="http://www.w3.org/2000/svg" x="0px" y="0px" viewBox="0 0 24 24">
		<title>Mailcoach logo</title>
		<style type="text/css">
			.st0{fill:#FFFFFF;}
		</style>
		<path class="st0" d="M4.5,15.1c1.4,0,2.6,1.2,2.6,2.6s-1.2,2.6-2.6,2.6s-2.6-1.2-2.6-2.6S3.1,15.1,4.5,15.1 M4.5,13.2
		c-2.5,0-4.5,2-4.5,4.5s2,4.5,4.5,4.5s4.5-2,4.5-4.5S7,13.2,4.5,13.2L4.5,13.2z"></path>
		<path class="st0" d="M19.5,15.1c1.4,0,2.6,1.2,2.6,2.6s-1.2,2.6-2.6,2.6s-2.6-1.2-2.6-2.6S18.1,15.1,19.5,15.1 M19.5,13.2
			c-2.5,0-4.5,2-4.5,4.5s2,4.5,4.5,4.5s4.5-2,4.5-4.5S22,13.2,19.5,13.2L19.5,13.2z"></path>
		<path class="st0" d="M12,1.9c-3.6,0-9.1,1-9.1,1l1,9.2c3.2,0.7,6,2.4,8,4.7c2.1-2.4,4.9-4.1,8.1-4.7l1.2-9.2
			C21.2,2.9,15.6,1.9,12,1.9z M12,14.1c-1.5-1.4-3.3-2.4-5.3-3.1l2.5-2.8l2.8,2.2l2.9-2.2l2.5,2.7C15.4,11.6,13.6,12.7,12,14.1z
			M18.4,9.9L16,7.3l1.3-0.9l-0.8-1.1l-4.3,3.3L7.8,5.3L6.9,6.4l1.2,0.9L5.6,10L5,4.4c1.9-0.3,4.8-0.7,7-0.7s5.2,0.4,7,0.7L18.4,9.9z"></path>
	</svg>